<svg width="19" height="26" viewBox="0 0 19 26" fill="none" xmlns="http://www.w3.org/2000/svg">
<path d="M0 24.0098C0 24.6394 0.514684 25.1541 1.14421 25.1541C1.78124 25.1541 2.29592 24.6394 2.29592 24.0098V2.93389C2.29592 2.54623 2.54623 2.29592 2.91256 2.29592H15.6429C16.0092 2.29592 16.2595 2.54623 16.2595 2.93389V24.0098C16.2595 24.6394 16.7742 25.1541 17.4133 25.1541C18.0429 25.1541 18.5554 24.6394 18.5554 24.0098V2.72178C18.5554 1.07273 17.4752 0 15.7856 0H2.77194C1.08984 0 0 1.07273 0 2.72178V24.0098Z" fill="#808080"/>
<path d="M3.69043 24.3637C3.69043 24.6138 3.89269 24.7416 4.15121 24.633L7.78871 23.0463C8.0859 22.9174 8.20941 22.8068 8.20941 22.5084V5.81157C8.20941 5.52071 8.0859 5.40047 7.79832 5.28329L4.15121 3.68485C3.89269 3.57844 3.69043 3.70617 3.69043 3.96586V24.3637Z" fill="#808080"/>
</svg>
