<svg width="25" height="25" viewBox="0 0 25 25" fill="none" xmlns="http://www.w3.org/2000/svg">
<path d="M6.18069 13.5583C5.65077 13.5583 5.24647 13.1541 5.24647 12.6241C5.24647 12.1038 5.65077 11.6995 6.18069 11.6995H11.1708V4.94717C11.1708 4.42475 11.5751 4.02256 12.0954 4.02256C12.6178 4.02256 13.0296 4.42475 13.0296 4.94717V12.6241C13.0296 13.1541 12.6178 13.5583 12.0954 13.5583H6.18069ZM12.105 24.21C18.7369 24.21 24.2121 18.7273 24.2121 12.105C24.2121 5.47312 18.7273 0 12.0954 0C5.47523 0 0 5.47312 0 12.105C0 18.7273 5.48484 24.21 12.105 24.21Z" fill="#007AFF"/>
</svg>
