<svg width="25" height="25" viewBox="0 0 25 25" fill="none" xmlns="http://www.w3.org/2000/svg">
<path d="M6.18031 13.5583H12.095C12.6174 13.5583 13.0292 13.1541 13.0292 12.6241V4.94719C13.0292 4.42477 12.6174 4.02258 12.095 4.02258C11.5747 4.02258 11.1704 4.42477 11.1704 4.94719V11.6995H6.18031C5.65039 11.6995 5.24609 12.1038 5.24609 12.6241C5.24609 13.1541 5.65039 13.5583 6.18031 13.5583Z" fill="#808080"/>
<path d="M12.105 24.21C18.7369 24.21 24.2121 18.7273 24.2121 12.105C24.2121 5.47312 18.7273 0 12.0954 0C5.47523 0 0 5.47312 0 12.105C0 18.7273 5.48484 24.21 12.105 24.21ZM12.105 21.8255C6.71085 21.8255 2.39412 17.4991 2.39412 12.105C2.39412 6.71085 6.70124 2.38452 12.0954 2.38452C17.4895 2.38452 21.8276 6.71085 21.8276 12.105C21.8276 17.4991 17.4991 21.8255 12.105 21.8255Z" fill="#808080"/>
</svg>
