<svg width="46" height="23" viewBox="0 0 46 23" fill="none" xmlns="http://www.w3.org/2000/svg">
<path d="M15.2471 22.2776H29.8561C31.8732 22.2776 32.8571 21.6431 32.8571 20.2676C32.8571 17.0602 28.8453 12.7537 22.5516 12.7537C16.2579 12.7537 12.2461 17.0602 12.2461 20.2676C12.2461 21.6431 13.2204 22.2776 15.2471 22.2776ZM14.8554 20.2528C14.5803 20.2528 14.4682 20.1687 14.4682 19.95C14.4682 18.1547 17.371 14.7785 22.5516 14.7785C27.7322 14.7785 30.635 18.1547 30.635 19.95C30.635 20.1687 30.5229 20.2528 30.2478 20.2528H14.8554ZM22.5516 11.2484C25.3849 11.2484 27.6795 8.74708 27.6795 5.68146C27.6795 2.66365 25.4053 0.254272 22.5516 0.254272C19.7384 0.254272 17.4216 2.69459 17.4333 5.70068C17.4375 8.75669 19.7278 11.2484 22.5516 11.2484ZM22.5516 9.22358C20.9292 9.22358 19.5584 7.67787 19.5584 5.69857C19.5446 3.77341 20.9185 2.27903 22.5516 2.27903C24.2082 2.27903 25.5544 3.75208 25.5544 5.68146C25.5544 7.65443 24.1953 9.22358 22.5516 9.22358Z" fill="#808080"/>
<path d="M2.51179 22.2797H11.6203C10.984 21.9084 10.5579 21.0703 10.6463 20.2922H2.39296C2.16374 20.2922 2.07303 20.1984 2.07303 20.0011C2.07303 17.2994 5.23757 14.7199 8.96414 14.7199C10.2771 14.7199 11.6004 15.0483 12.6253 15.6213C13.0076 15.0598 13.496 14.5758 14.1309 14.1598C12.6466 13.2354 10.7965 12.7366 8.96414 12.7366C4.01391 12.7366 0 16.2802 0 20.1804C0 21.5698 0.839061 22.2797 2.51179 22.2797ZM8.97375 11.5062C11.4321 11.5062 13.4358 9.31713 13.4358 6.61901C13.4358 3.98792 11.4408 1.85229 8.97375 1.85229C6.52172 1.85229 4.49789 4.01886 4.50961 6.64034C4.51172 9.33096 6.51539 11.5062 8.97375 11.5062ZM8.97375 9.51121C7.63148 9.51121 6.50671 8.23292 6.50671 6.64034C6.50249 5.09346 7.62609 3.84939 8.97375 3.84939C10.3385 3.84939 11.4504 5.07424 11.4504 6.61901C11.4504 8.23292 10.3181 9.51121 8.97375 9.51121ZM42.5918 22.2797C44.2645 22.2797 45.1036 21.5698 45.1036 20.1804C45.1036 16.2802 41.0897 12.7366 36.1394 12.7366C34.3071 12.7366 32.4569 13.2354 30.9726 14.1598C31.6076 14.5758 32.096 15.0598 32.4804 15.6213C33.5032 15.0483 34.8169 14.7199 36.1394 14.7199C39.866 14.7199 43.0327 17.2994 43.0327 20.0011C43.0327 20.1984 42.9398 20.2922 42.7106 20.2922H34.4594C34.5457 21.0703 34.11 21.9084 33.4833 22.2797H42.5918ZM36.1298 11.5062C38.5882 11.5062 40.5919 9.33096 40.594 6.64034C40.6057 4.01886 38.5819 1.85229 36.1298 1.85229C33.6628 1.85229 31.6678 3.98792 31.6678 6.61901C31.6678 9.31713 33.6736 11.5062 36.1298 11.5062ZM36.1298 9.51121C34.7855 9.51121 33.6532 8.23292 33.6532 6.61901C33.6532 5.07424 34.7672 3.84939 36.1298 3.84939C37.4775 3.84939 38.6011 5.09346 38.599 6.64034C38.599 8.23292 37.4625 9.51121 36.1298 9.51121Z" fill="#808080"/>
</svg>
